<?xml version="1.0" encoding="UTF-8" standalone="no"?>
<svg
   version="1.1"
   width="17"
   height="17"
   viewBox="0 0 17 17"
   xml:space="preserve"
   id="svg268"
   sodipodi:docname="check.svg"
   inkscape:version="1.2.2 (b0a8486, 2022-12-01)"
   xmlns:inkscape="http://www.inkscape.org/namespaces/inkscape"
   xmlns:sodipodi="http://sodipodi.sourceforge.net/DTD/sodipodi-0.dtd"
   xmlns="http://www.w3.org/2000/svg"
   xmlns:svg="http://www.w3.org/2000/svg"><sodipodi:namedview
   id="namedview270"
   pagecolor="#505050"
   bordercolor="#eeeeee"
   borderopacity="1"
   inkscape:showpageshadow="0"
   inkscape:pageopacity="0"
   inkscape:pagecheckerboard="0"
   inkscape:deskcolor="#505050"
   showgrid="false"
   inkscape:zoom="41.7193"
   inkscape:cx="11.361648"
   inkscape:cy="8.6410846"
   inkscape:window-width="1920"
   inkscape:window-height="1129"
   inkscape:window-x="0"
   inkscape:window-y="0"
   inkscape:window-maximized="1"
   inkscape:current-layer="svg268" />

<defs
   id="defs262">
</defs>
<g
   style="opacity:1;fill:none;fill-rule:nonzero;stroke:none;stroke-width:0;stroke-linecap:butt;stroke-linejoin:miter;stroke-miterlimit:10;stroke-dasharray:none"
   transform="matrix(0.18888936,0,0,0.18888936,-5.3066645e-5,1.8592597e-5)"
   id="g266">
	<path
   d="m 89.122,3.486 v 0 C 86.9,-0.25 81.637,-0.632 78.898,2.744 L 33.202,59.083 c -1.118,1.378 -3.245,1.303 -4.262,-0.151 L 17.987,43.291 C 14.261,37.969 6.502,37.626 2.321,42.598 v 0 c -2.883,3.428 -3.102,8.366 -0.533,12.036 L 24.206,86.65 c 2.729,3.897 8.503,3.89 11.222,-0.014 L 41.863,77.397 88.87,10.265 c 1.41,-2.014 1.508,-4.667 0.252,-6.779 z"
   style="opacity:1;fill:#06bc42;fill-rule:nonzero;stroke:none;stroke-width:1;stroke-linecap:butt;stroke-linejoin:miter;stroke-miterlimit:10;stroke-dasharray:none"
   stroke-linecap="round"
   id="path264" />
</g>
</svg>
