<?xml version="1.0" encoding="UTF-8" standalone="no"?>
<svg
   fill="#000000"
   viewBox="0 0 30 30"
   width="30px"
   height="30px"
   version="1.1"
   id="svg180"
   sodipodi:docname="github-logo.svg"
   inkscape:version="1.2.2 (b0a8486, 2022-12-01)"
   xmlns:inkscape="http://www.inkscape.org/namespaces/inkscape"
   xmlns:sodipodi="http://sodipodi.sourceforge.net/DTD/sodipodi-0.dtd"
   xmlns="http://www.w3.org/2000/svg"
   xmlns:svg="http://www.w3.org/2000/svg">
  <defs
     id="defs184" />
  <sodipodi:namedview
     id="namedview182"
     pagecolor="#505050"
     bordercolor="#eeeeee"
     borderopacity="1"
     inkscape:showpageshadow="0"
     inkscape:pageopacity="0"
     inkscape:pagecheckerboard="0"
     inkscape:deskcolor="#505050"
     showgrid="false"
     inkscape:zoom="15.733333"
     inkscape:cx="21.864407"
     inkscape:cy="14.713983"
     inkscape:window-width="1280"
     inkscape:window-height="993"
     inkscape:window-x="1920"
     inkscape:window-y="0"
     inkscape:window-maximized="1"
     inkscape:current-layer="svg180" />
  <path
     d="m 15,0.231 c -8.28375,0 -15,6.71625 -15,15 0,7.02875 4.84,12.91 11.365,14.5375 C 11.295,29.566 11.25,29.331 11.25,29.03975 V 26.476 c -0.60875,0 -1.62875,0 -1.885,0 -1.02625,0 -1.93875,-0.44125 -2.38125,-1.26125 C 6.4925,24.3035 6.4075,22.90975 5.19,22.05725 4.82875,21.7735 5.10375,21.44975 5.52,21.4935 c 0.76875,0.2175 1.40625,0.745 2.00625,1.5275 0.5975,0.78375 0.87875,0.96125 1.995,0.96125 0.54125,0 1.35125,-0.03125 2.11375,-0.15125 0.41,-1.04125 1.11875,-2 1.985,-2.4525 -4.995,-0.51375 -7.37875,-2.99875 -7.37875,-6.3725 0,-1.4525 0.61875,-2.8575 1.67,-4.04125 -0.345,-1.175 -0.77875,-3.57125 0.1325,-4.48375 2.2475,0 3.60625,1.4575 3.9325,1.85125 1.12,-0.38375 2.35,-0.60125 3.6425,-0.60125 1.295,0 2.53,0.2175 3.6525,0.60375 0.3225,-0.39125 1.6825,-1.85375 3.935,-1.85375 0.915,0.91375 0.47625,3.32 0.1275,4.4925 1.045,1.18125 1.66,2.5825 1.66,4.0325 0,3.37125 -2.38,5.855 -7.3675,6.37125 C 18.99875,22.0935 20,24.106 20,25.62225 v 3.4175 c 0,0.13 -0.02875,0.22375 -0.04375,0.335 C 25.80125,27.326 30,21.776 30,15.231 c 0,-8.28375 -6.71625,-15 -15,-15 z"
     id="path178"
     fill="#1b1f23"
     style="stroke-width:1.25" />
</svg>
