<svg
   xmlns="http://www.w3.org/2000/svg"
   viewBox="0 0 48 48"
   width="50px"
   height="50px">
  <path
     fill="#80deea"
     d="m 24,34.408106 c -13.46087,0 -24,-4.591298 -24,-10.434768 0,-5.84347 10.53913,-10.434768 24,-10.434768 13.46087,0 24,4.591298 24,10.434768 0,5.84347 -10.53913,10.434768 -24,10.434768 z m 0,-18.782583 c -13.147826,0 -21.9130435,4.278255 -21.9130435,8.347815 0,4.06956 8.7652175,8.347814 21.9130435,8.347814 13.147826,0 21.913043,-4.278254 21.913043,-8.347814 0,-4.06956 -8.765217,-8.347815 -21.913043,-8.347815 z" />
  <path
     fill="#80deea"
     d="M 14.713043,45.46896 C 13.669565,45.46896 12.834783,45.260264 12,44.738526 6.8869565,41.816791 8.2434783,30.442894 14.921739,18.755954 v 0 C 18.052174,13.329875 21.913043,8.7385775 25.669565,5.8168424 29.73913,2.6864121 33.391304,1.747283 35.895652,3.2081505 c 2.608696,1.4608675 3.547826,5.1130363 2.921739,10.2260725 -0.626087,4.799993 -2.713043,10.434768 -5.843478,15.860846 -3.130435,5.426079 -6.991304,10.017378 -10.747826,12.939113 -2.713044,2.086953 -5.321739,3.234778 -7.513044,3.234778 z M 33.286957,4.5646703 c -1.669566,0 -3.86087,0.9391292 -6.26087,2.8173873 C 23.478261,10.199445 19.826087,14.582047 16.8,19.79943 v 0 c -6.573913,11.373897 -7.2,21.182579 -3.756522,23.165186 1.773913,1.043476 4.695652,0.104347 7.930435,-2.399997 3.547826,-2.817388 7.2,-7.19999 10.226087,-12.417374 C 34.226087,22.929861 36.208696,17.60813 36.834783,13.121179 37.356522,8.9472728 36.730435,6.0255378 34.956522,4.982061 34.434783,4.7733657 33.913043,4.5646703 33.286957,4.5646703 Z" />
  <path
     fill="#80deea"
     d="m 33.391304,45.46896 c -5.217391,0 -12.730434,-6.365209 -18.365217,-16.278238 C 8.2434783,17.503782 6.8869565,6.1298855 12,3.2081505 v 0 c 5.113043,-2.92173501 14.295652,3.8608641 21.078261,15.5478035 3.130435,5.426079 5.217391,11.060854 5.843478,15.860847 C 39.652174,39.729837 38.608696,43.277658 36,44.842874 35.165217,45.260264 34.330435,45.46896 33.391304,45.46896 Z M 13.043478,4.982061 C 9.6,6.9646669 10.226087,16.773348 16.8,28.147245 c 6.573913,11.373896 14.713043,16.799976 18.156522,14.817371 1.773913,-1.043478 2.4,-3.965213 1.878261,-8.13912 C 36.208696,30.338546 34.226087,25.016815 31.2,19.79943 24.626087,8.4255344 16.486957,2.9994551 13.043478,4.982061 Z" />
  <ellipse
     cx="24"
     cy="23.973339"
     fill="#80deea"
     rx="4.173913"
     ry="4.1739073" />
</svg>
