<?xml version="1.0" encoding="UTF-8" standalone="no"?>
<!-- Generator: Adobe Illustrator 19.0.0, SVG Export Plug-In . SVG Version: 6.00 Build 0)  -->

<svg
   version="1.1"
   id="Layer_1"
   x="0px"
   y="0px"
   viewBox="0 0 20 20"
   xml:space="preserve"
   sodipodi:docname="trash.svg"
   width="20"
   height="20"
   xmlns:sodipodi="http://sodipodi.sourceforge.net/DTD/sodipodi-0.dtd"
   xmlns="http://www.w3.org/2000/svg"
   xmlns:svg="http://www.w3.org/2000/svg"><defs
   id="defs422" /><sodipodi:namedview
   id="namedview420"
   pagecolor="#505050"
   bordercolor="#eeeeee"
   borderopacity="1"
   showgrid="false" />
<g
   id="g387"
   transform="matrix(0.0436205,0,0,0.0436205,0.01501368,0)">
	<g
   id="g385">
		<g
   id="g383">
			<path
   d="m 382.078,57.069 h -89.78 C 289.128,25.075 262.064,0 229.249,0 196.434,0 169.37,25.075 166.2,57.069 H 76.421 c -26.938,0 -48.854,21.916 -48.854,48.854 0,26.125 20.613,47.524 46.429,48.793 V 399.5 c 0,32.533 26.467,59 59,59 h 192.508 c 32.533,0 59,-26.467 59,-59 V 154.717 c 25.816,-1.269 46.429,-22.668 46.429,-48.793 0,-26.939 -21.916,-48.855 -48.855,-48.855 z M 229.249,30 c 16.244,0 29.807,11.673 32.76,27.069 h -65.52 C 199.442,41.673 213.005,30 229.249,30 Z m 125.254,369.501 c 0,15.991 -13.009,29 -29,29 H 132.995 c -15.991,0 -29,-13.009 -29,-29 V 154.778 c 12.244,0 240.932,0 250.508,0 z m 27.575,-274.723 c -3.127,0 -302.998,0 -305.657,0 -10.396,0 -18.854,-8.458 -18.854,-18.854 0,-10.396 8.458,-18.854 18.854,-18.854 h 305.657 c 10.396,0 18.854,8.458 18.854,18.854 0,10.396 -8.457,18.854 -18.854,18.854 z"
   id="path375" />
			<path
   d="m 229.249,392.323 c 8.284,0 15,-6.716 15,-15 V 203.618 c 0,-8.284 -6.715,-15 -15,-15 -8.284,0 -15,6.716 -15,15 v 173.705 c 0,8.284 6.716,15 15,15 z"
   id="path377" />
			<path
   d="m 306.671,392.323 c 8.284,0 15,-6.716 15,-15 V 203.618 c 0,-8.284 -6.716,-15 -15,-15 -8.284,0 -15,6.716 -15,15 v 173.705 c 0,8.284 6.716,15 15,15 z"
   id="path379" />
			<path
   d="m 151.828,392.323 c 8.284,0 15,-6.716 15,-15 V 203.618 c 0,-8.284 -6.716,-15 -15,-15 -8.284,0 -15,6.716 -15,15 v 173.705 c 0,8.284 6.716,15 15,15 z"
   id="path381" />
		</g>
	</g>
</g>
<g
   id="g389">
</g>
<g
   id="g391">
</g>
<g
   id="g393">
</g>
<g
   id="g395">
</g>
<g
   id="g397">
</g>
<g
   id="g399">
</g>
<g
   id="g401">
</g>
<g
   id="g403">
</g>
<g
   id="g405">
</g>
<g
   id="g407">
</g>
<g
   id="g409">
</g>
<g
   id="g411">
</g>
<g
   id="g413">
</g>
<g
   id="g415">
</g>
<g
   id="g417">
</g>
</svg>
