<svg
   xmlns="http://www.w3.org/2000/svg"
   viewBox="0 0 48 48"
   width="50px"
   height="50px"
   fill="#fff">
  <path
     d="M 45.473608,0 H 2.52624 L 6.3157137,42.947368 23.999924,48 41.684135,42.947368 Z" />
  <path
     d="M 23.999924,3.7894737 V 44.084211 L 38.147293,40.042105 41.305187,3.7894737 Z" />
  <path
     fill="#673ab7"
     d="M 35.494661,10.105263 H 23.999924 v 5.052632 h 6.189474 l -0.378947,5.052631 h -5.810527 v 5.052632 h 5.557895 l -0.378947,5.68421 -5.178948,1.768421 v 5.305264 l 9.978948,-3.284211 0.88421,-14.526316 v 0 z" />
  <path
     fill="#673ab7"
     d="m 23.999924,10.105263 v 5.052632 H 12.757819 l -0.378947,-5.052632 z m -5.810526,10.105263 0.252631,5.052632 h 5.557895 v -5.052632 z m 0.505263,7.578948 h -5.052632 l 0.378948,6.947368 9.978947,3.284211 v -5.305264 l -5.178947,-1.768421 z" />
</svg>
