<svg
   xmlns="http://www.w3.org/2000/svg"
   viewBox="0 0 48 48"
   width="50px"
   height="50px">
  <path
     fill="#fff"
     d="M 46.989474,21.6 26.4,1.0105263 C 25.768421,0.37894737 24.884211,0 24,0 c 0,0 0,0 0,0 -0.884211,0 -1.768421,0.37894737 -2.4,1.0105263 l -4.421053,4.4210526 5.178948,5.1789471 C 22.863158,10.357895 23.368421,10.231579 24,10.231579 c 2.147368,0 3.789474,1.642105 3.789474,3.789474 0,0.631579 -0.126316,1.136842 -0.378948,1.642105 l 5.052632,5.052631 c 0.505263,-0.252631 1.010526,-0.378947 1.642105,-0.378947 2.147369,0 3.789474,1.642105 3.789474,3.789474 0,2.147368 -1.642105,3.789473 -3.789474,3.789473 -2.147368,0 -3.789474,-1.642105 -3.789474,-3.789473 0,-0.631579 0.126316,-1.136842 0.378948,-1.642105 l -5.052632,-5.052632 c -0.126316,0 -0.252631,0.126316 -0.378947,0.126316 v 13.136842 c 1.515789,0.505263 2.526316,1.894737 2.526316,3.536842 0,2.147368 -1.642106,3.789474 -3.789474,3.789474 -2.147368,0 -3.789474,-1.642106 -3.789474,-3.789474 0,-1.642105 1.010527,-3.031579 2.526316,-3.536842 V 17.431579 c -1.515789,-0.505263 -2.526316,-1.894737 -2.526316,-3.536842 0,-0.631579 0.126316,-1.136842 0.378948,-1.642105 L 15.410526,7.0736842 1.0105263,21.6 C 0.37894737,22.231579 0,23.115789 0,24 c 0,0.884211 0.37894737,1.768421 1.0105263,2.4 L 21.6,46.989474 c 0,0 0,0 0,0 C 22.231579,47.621053 23.115789,48 24,48 c 0.884211,0 1.768421,-0.378947 2.4,-1.010526 L 46.989474,26.4 C 47.621053,25.768421 48,24.884211 48,24 48,23.115789 47.621053,22.231579 46.989474,21.6 Z" />
</svg>
