<svg
   xmlns="http://www.w3.org/2000/svg"
   viewBox="0 0 48 48"
   width="50px"
   height="50px">
  <path
     fill="#fff"
     d="M 0,48 V 0 h 48 v 48 z" />
  <path
     fill="#673ab7"
     d="M 31.384,35.929333 C 32.306667,37.428 33.309333,38.864 35.433333,38.864 c 1.784,0 2.72,-0.886667 2.72,-2.113333 0,-1.468 -0.968,-1.989334 -2.930666,-2.844 L 34.146667,33.448 C 31.041333,32.130667 28.976,30.48 28.976,26.993333 c 0,-3.213333 2.46,-5.658666 6.304,-5.658666 2.737333,0 4.704,0.948 6.122667,3.430666 l -3.352,2.142667 C 37.313333,25.590667 36.516,25.072 35.28,25.072 c -1.261333,0 -2.06,0.796 -2.06,1.836 0,1.285333 0.8,1.805333 2.646667,2.601333 l 1.076,0.458667 c 3.66,1.558667 5.724,3.150667 5.724,6.729333 0,3.856 -3.045334,5.969334 -7.133334,5.969334 C 31.534667,42.666667 29.264,40.66 28,38.176 Z m -15.448,0.109334 c 0.674667,1.208 1.7,2.137333 3.174667,2.137333 1.410666,0 2.222666,-0.557333 2.222666,-2.724 V 21.333333 h 4.444 v 14.801334 c 0,4.489333 -2.604,6.532 -6.406666,6.532 -3.436,0 -5.916,-2.328 -6.926667,-4.490667 z" />
</svg>
