<?xml version="1.0" encoding="UTF-8"?>
<svg width="400px" height="400px" viewBox="0 0 400 400" version="1.1" xmlns="http://www.w3.org/2000/svg" xmlns:xlink="http://www.w3.org/1999/xlink">
    <!-- Generator: Sketch 59.1 (86144) - https://sketch.com -->
    <title>Group 4</title>
    <desc>Created with Sketch.</desc>
    <g id="Page-1" stroke="none" stroke-width="1" fill="none" fill-rule="evenodd">
        <g id="Group-4">
            <rect id="Rectangle" x="0" y="0" width="400" height="400"></rect>
            <g id="Group-3" transform="translate(37.500000, 62.000000)">
                <path d="M0.5,3.01310678 L19.2857025,0 L19.2857025,19.4582947 L41.8498051,19.4582947 L41.8498051,35.0266145 L19.2857025,35.0266145 L19.2857025,58.2521948 C19.2857025,62.1866748 19.9766376,65.3260794 21.3645473,67.6668003 C22.7512491,70.0111297 25.5463954,71.1814901 29.7487783,71.1814901 C31.7648108,71.1814901 33.8472794,70.9938476 35.9877285,70.6173596 C38.1330094,70.2408716 40.0874375,69.7188403 41.8498051,69.0476572 L44.5,83.6104052 C42.2278867,84.5317784 39.708148,85.3280565 36.9347444,85.9956311 C34.1601329,86.6644085 30.7561906,87 26.7229177,87 C21.5952616,87 17.3506012,86.3095715 13.9889365,84.9287146 C10.6260638,83.5478577 7.93721518,81.6245213 5.92118267,79.1526912 C3.90394224,76.6868753 2.49670565,73.6930139 1.69705705,70.1771212 C0.896200516,66.6624314 0.5,62.7712536 0.5,58.5023849 L0.5,3.01310678" id="Fill-1" fill="#161326"></path>
                <path d="M117.5,19 C113.720636,31.8285564 109.771454,43.8542669 105.654862,55.0747059 C101.539475,66.299996 97.0422973,77.1845009 92.1681467,87.7294336 C90.4049254,91.5314307 88.6441129,94.759793 86.8808916,97.4169463 C85.1176703,100.0741 83.185835,102.267979 81.0902031,103.999798 C78.9909581,105.727978 76.6195218,106.992885 73.9770987,107.796944 C71.3322668,108.596152 68.2514471,109 64.7274133,109 C61.7875067,109 59.0812511,108.723491 56.6038289,108.174112 C54.1300198,107.624732 52.0958116,107.013502 50.5,106.339208 L53.7699083,91.2767514 C55.6981305,91.951045 57.4143807,92.4167441 58.9246809,92.6689979 C60.4337767,92.9248898 62.0259752,93.0485912 63.7048894,93.0485912 C67.056696,93.0485912 69.6340823,92.1402353 71.4382527,90.3295873 C73.2400144,88.5104499 74.7707891,86.0012532 76.0293726,82.7947205 C71.7513931,74.3587743 67.4758224,64.8847071 63.2002517,54.3797954 C58.9246809,43.873671 54.8996225,32.0832356 51.1286896,19 L70.9902211,19 C71.8308826,22.2914258 72.8220924,25.8581477 73.9566241,29.6965275 C75.0923602,33.5373327 76.2919288,37.418159 77.5577386,41.3426446 C78.8163221,45.2659175 80.1026065,49.0836803 81.4057523,52.797146 C82.7088981,56.5118244 83.9530289,59.884505 85.132123,62.9236771 C86.2232968,59.884505 87.3614417,56.5118244 88.5381269,52.797146 C89.7172209,49.0836803 90.8734316,45.2659175 92.0091677,41.3426446 C93.1436994,37.418159 94.2384864,33.5373327 95.2911199,29.6965275 C96.3437534,25.8581477 97.2904009,22.2914258 98.129858,19 L117.5,19" id="Fill-2" fill="#161326"></path>
                <path d="M170.22712,53.1154871 C170.22712,47.3260141 168.91513,42.6905768 166.29844,39.2079695 C163.678106,35.7277739 159.787086,33.9840584 154.632668,33.9840584 C152.940445,33.9840584 151.376991,34.0479705 149.943521,34.173383 C148.503978,34.2987954 147.319543,34.4459139 146.391432,34.6147383 L146.391432,68.4688655 C147.575867,69.2249579 149.116239,69.854432 151.019839,70.3572877 C152.919793,70.8613493 154.841615,71.1133801 156.788947,71.1133801 C165.748134,71.1133801 170.22712,65.1152883 170.22712,53.1154871 Z M189.5,52.6126314 C189.5,57.7304242 188.865872,62.3875674 187.59883,66.5828552 C186.329359,70.7781429 184.470708,74.3861628 182.019231,77.4069146 C179.56654,80.4264606 176.523454,82.7767383 172.892402,84.4529239 C169.254061,86.1315214 165.070273,86.972026 160.337392,86.972026 C157.717058,86.972026 155.266797,86.7199952 152.985393,86.2159336 C150.70156,85.7130779 148.503978,85.0016034 146.391432,84.0766866 L146.391432,109 L127.5,109 L127.5,21.7756384 C129.188579,21.2727827 131.133482,20.791633 133.332279,20.3297775 C135.529861,19.8691279 137.831916,19.4699787 140.240874,19.1335356 C142.649832,18.7982985 145.101309,18.5257676 147.596518,18.3159429 C150.088083,18.1061182 152.47639,18 154.757793,18 C160.254786,18 165.156524,18.8200045 169.469081,20.45519 C173.777994,22.0903754 177.412691,24.3996528 180.371956,27.3769927 C183.328791,30.3555385 185.588328,33.9840584 187.152997,38.2637584 C188.717666,42.5434584 189.5,47.3260141 189.5,52.6126314 L189.5,52.6126314 Z" id="Fill-3" fill="#161326"></path>
                <path d="M241.428742,46.3033846 C241.343364,44.7041386 241.0728,43.1436329 240.613443,41.62671 C240.150478,40.1109977 239.438595,38.7659847 238.478995,37.584407 C237.515788,36.4064613 236.302459,35.4367444 234.840212,34.6776777 C233.373155,33.9210322 231.553764,33.5408934 229.378431,33.5408934 C227.288475,33.5408934 225.489527,33.9004514 223.981584,34.6147248 C222.477249,35.3314194 221.220631,36.2805555 220.216538,37.4585012 C219.212446,38.6376576 218.438032,40.0080939 217.896905,41.5649677 C217.352169,43.1242628 216.95414,44.7041386 216.704019,46.3033846 L241.428742,46.3033846 Z M197.5,53.5054392 C197.5,47.6096574 198.398272,42.4499403 200.199626,38.026288 C201.998574,33.6038464 204.359093,29.9211013 207.288398,26.9707892 C210.218905,24.0228983 213.585921,21.7904913 217.393055,20.2747791 C221.200188,18.7578561 225.11194,18 229.128309,18 C238.499438,18 245.903266,20.8873593 251.344605,26.654814 C256.782337,32.4259006 259.5,40.9136473 259.5,52.1156327 C259.5,53.2112554 259.457912,54.4109925 259.376142,55.7172654 C259.290764,57.0235382 259.207791,58.1796925 259.126021,59.1905709 L216.704019,59.1905709 C217.122491,63.0670172 218.917832,66.1408139 222.100865,68.4143823 C225.280291,70.6891614 229.546781,71.8259456 234.90154,71.8259456 C238.331087,71.8259456 241.699306,71.5099704 245.006197,70.8792307 C248.30948,70.2472804 251.009106,69.4700541 253.099061,68.5414988 L255.609894,83.8305806 C254.605801,84.3354145 253.267412,84.8402484 251.594726,85.3462929 C249.919636,85.8511268 248.058157,86.2942184 246.009087,86.6719358 C243.957612,87.0520745 241.761836,87.3680497 239.420557,87.6210719 C237.076873,87.8728836 234.733189,88 232.390708,88 C226.449126,88 221.285566,87.116238 216.892812,85.3462929 C212.500058,83.578769 208.857668,81.1562927 205.972856,78.0812853 C203.084437,75.0074886 200.953597,71.3646945 199.57312,67.1516923 C198.191441,62.9399007 197.5,58.3915532 197.5,53.5054392 L197.5,53.5054392 Z" id="Fill-4" fill="#161326"></path>
                <polyline id="Fill-5" fill="#5AB783" points="80.6129808 190 48.5 164.596971 48.5 158.277092 80.6129808 133 83.5 140.584096 57.9074519 161.436426 83.5 182.289966 80.6129808 190"></polyline>
                <path d="M145.374735,159.500605 C145.374735,152.087813 143.730327,146.211582 140.43672,141.870703 C137.14431,137.532245 132.666202,135.362411 127.001198,135.362411 C121.333798,135.362411 116.853295,137.532245 113.56328,141.870703 C110.269673,146.211582 108.625265,152.087813 108.625265,159.500605 C108.625265,166.914609 110.269673,172.79084 113.56328,177.129297 C116.853295,181.468966 121.333798,183.637589 127.001198,183.637589 C132.666202,183.637589 137.14431,181.468966 140.43672,177.129297 C143.730327,172.79084 145.374735,166.914609 145.374735,159.500605 Z M157.5,159.500605 C157.5,164.724191 156.752651,169.442853 155.250766,173.655383 C153.752474,177.867913 151.646961,181.490761 148.937819,184.522717 C146.228677,187.555883 142.999745,189.892814 139.249823,191.537141 C135.502297,193.179047 131.418224,194 127.001198,194 C122.582973,194 118.501296,193.179047 114.750177,191.537141 C111.000255,189.892814 107.768927,187.555883 105.062181,184.522717 C102.353039,181.490761 100.251119,177.867913 98.7492343,173.655383 C97.2509424,169.442853 96.5,164.724191 96.5,159.500605 C96.5,154.361779 97.2509424,149.664912 98.7492343,145.408792 C100.251119,141.156304 102.353039,137.51045 105.062181,134.477283 C107.768927,131.445328 111.000255,129.107186 114.750177,127.462859 C118.501296,125.820953 122.582973,125 127.001198,125 C131.418224,125 135.502297,125.820953 139.249823,127.462859 C142.999745,129.107186 146.228677,131.445328 148.937819,134.477283 C151.646961,137.51045 153.752474,141.156304 155.250766,145.408792 C156.752651,149.664912 157.5,154.361779 157.5,159.500605 L157.5,159.500605 Z" id="Fill-6" fill="#5AB783"></path>
                <path d="M193.276507,94 C196.747521,94 199.731888,94.2516823 202.230823,94.7574669 C204.727325,95.2620415 206.484123,95.7254757 207.5,96.1465595 L205.340501,106.250151 C204.324624,105.744367 202.882931,105.260362 201.023937,104.796928 C199.160077,104.335914 196.875266,104.102382 194.168289,104.102382 C188.663088,104.102382 184.811272,105.597955 182.610408,108.585472 C180.409544,111.57541 179.309721,115.595066 179.309721,120.645652 L179.309721,126.329074 L204.706643,126.329074 L204.706643,136.179773 L179.309721,136.179773 L179.309721,192 L167.5,192 L167.5,120.39397 C167.5,111.975923 169.573119,105.472114 173.72179,100.881332 C177.868027,96.2941808 184.389105,94 193.276507,94" id="Fill-7" fill="#5AB783"></path>
                <path d="M251.5,164.722908 L219.384814,190 L216.5,182.415904 L242.091902,161.436426 C237.827186,158.0676 233.560066,154.611587 229.29535,151.07323 C225.02823,147.534873 220.764716,144.038899 216.5,140.584096 L219.384814,133 L251.5,158.277092 L251.5,164.722908" id="Fill-8" fill="#5AB783"></path>
                <path d="M134.249308,236.107616 C132.574421,242.46489 130.799738,248.780087 128.915641,255.053207 C127.03515,261.327529 125.045245,267.643928 122.954342,274 L108.397374,274 C106.88721,270.487149 105.250798,266.304669 103.490544,261.452558 C101.727885,256.60165 99.9027028,251.310734 98.0149982,245.581012 C96.1284959,239.851291 94.1975064,233.784951 92.2244342,227.385599 C90.2525644,220.98745 88.345622,214.525583 86.5,208 L106.201865,208 C106.876389,211.012732 107.608626,214.295962 108.409397,217.849688 C109.210169,221.40702 110.05182,225.065338 110.935555,228.82945 C111.821694,232.592361 112.746308,236.379315 113.714208,240.185504 C114.679703,243.992896 115.669245,247.650012 116.681631,251.164065 C117.767362,247.482905 118.833855,243.718793 119.88111,239.870526 C120.925961,236.024663 121.929931,232.238911 122.893021,228.514472 C123.852504,224.794841 124.773512,221.196634 125.653639,217.724658 C126.531362,214.253884 127.305681,211.012732 127.974193,208 L141.527191,208 C142.198108,211.012732 142.94838,214.253884 143.787627,217.724658 C144.623267,221.196634 145.500989,224.794841 146.421997,228.514472 C147.3406,232.238911 148.30369,236.024663 149.306458,239.870526 C150.314035,243.718793 151.358886,247.482905 152.444616,251.164065 C153.454598,247.650012 154.46458,243.992896 155.474563,240.185504 C156.483342,236.379315 157.432004,232.592361 158.318143,228.82945 C159.19827,225.065338 160.039922,221.40702 160.840694,217.849688 C161.641465,214.295962 162.373702,211.012732 163.048226,208 L182.5,208 C180.654378,214.525583 178.747436,220.98745 176.771959,227.385599 C174.800089,233.784951 172.871504,239.851291 170.985002,245.581012 C169.097297,251.310734 167.251675,256.60165 165.446933,261.452558 C163.643394,266.304669 161.98534,270.487149 160.478783,274 L145.918208,274 C143.828507,267.643928 141.779686,261.327529 139.771746,255.053207 C137.765008,248.780087 135.92179,242.46489 134.249308,236.107616" id="Fill-9" fill="#161326"></path>
                <path d="M231.428742,234.302895 C231.343364,232.703677 231.0728,231.143198 230.613443,229.627512 C230.150478,228.111826 229.438595,226.765626 228.478995,225.584068 C227.515788,224.406143 226.302459,223.437653 224.840212,222.6786 C223.373155,221.920757 221.553764,221.541835 219.378431,221.541835 C217.288475,221.541835 215.489527,221.900176 213.981584,222.614437 C212.477249,223.33233 211.220631,224.280239 210.216538,225.458165 C209.212446,226.638511 208.438032,228.007713 207.896905,229.565771 C207.352169,231.123828 206.95414,232.703677 206.704019,234.302895 L231.428742,234.302895 Z M187.5,241.504825 C187.5,235.610356 188.398272,230.449517 190.199626,226.025942 C191.998574,221.603576 194.359093,217.920895 197.288398,214.970634 C200.217702,212.022794 203.585921,209.791636 207.393055,208.27474 C211.200188,206.757843 215.11194,206 219.128309,206 C228.499438,206 235.903266,208.887309 241.344605,214.654664 C246.782337,220.425651 249.5,228.913251 249.5,240.115043 C249.5,241.210646 249.457912,242.410363 249.376142,243.716613 C249.290764,245.024074 249.207791,246.178998 249.126021,247.189859 L206.704019,247.189859 C207.122491,251.067448 208.917832,254.141192 212.100865,256.41351 C215.280291,258.68825 219.546781,259.825015 224.90154,259.825015 C228.331087,259.825015 231.699306,259.510256 235.006197,258.878316 C238.30948,258.247587 241.009106,257.469164 243.099061,256.541835 L245.609894,271.829442 C244.605801,272.334267 243.26621,272.840303 241.594726,273.345128 C239.919636,273.851164 238.058157,274.294248 236.009087,274.671959 C233.957612,275.05088 231.761836,275.36685 229.420557,275.619868 C227.076873,275.872886 224.733189,276 222.390708,276 C216.449126,276 211.285566,275.115043 206.892812,273.345128 C202.500058,271.577635 198.857668,269.156411 195.972856,266.080246 C193.084437,263.007713 190.953597,259.364982 189.571918,255.150842 C188.191441,250.939124 187.5,246.390855 187.5,241.504825 L187.5,241.504825 Z" id="Fill-10" fill="#161326"></path>
                <path d="M304.22712,240.512799 C304.22712,228.344926 299.748134,222.26099 290.790162,222.26099 C288.841615,222.26099 286.919793,222.514791 285.019839,223.021178 C283.116239,223.52878 281.575867,224.161461 280.391432,224.922864 L280.391432,259.269782 C281.319543,259.441006 282.503978,259.586729 283.943521,259.714237 C285.376991,259.84053 286.94166,259.902463 288.633883,259.902463 C293.788301,259.902463 297.678106,258.129499 300.29844,254.581143 C302.91513,251.031573 304.22712,246.342935 304.22712,240.512799 Z M323.5,241.019187 C323.5,246.342935 322.717666,251.159081 321.152997,255.467625 C319.589543,259.776169 317.328791,263.453247 314.371956,266.494001 C311.412691,269.535969 307.777994,271.879681 303.469081,273.52878 C299.156524,275.175451 294.254786,276 288.757793,276 C286.477604,276 284.089298,275.891922 281.596518,275.683052 C279.101309,275.471754 276.649832,275.196095 274.240874,274.859717 C271.831916,274.520911 269.529861,274.120173 267.332279,273.655074 C265.134696,273.191189 263.189794,272.705445 261.5,272.197843 L261.5,179.041968 L280.391432,176 L280.391432,209.206635 C282.503978,208.277651 284.70156,207.558751 286.985393,207.051149 C289.266797,206.544761 291.718273,206.292175 294.337392,206.292175 C299.070273,206.292175 303.255276,207.11551 306.892402,208.76218 C310.523454,210.411279 313.56654,212.754991 316.020446,215.796959 C318.470708,218.837713 320.329359,222.495361 321.600045,226.760188 C322.867087,231.028659 323.5,235.780444 323.5,241.019187 L323.5,241.019187 Z" id="Fill-11" fill="#161326"></path>
            </g>
        </g>
    </g>
</svg>