<svg xmlns="http://www.w3.org/2000/svg" version="1" viewBox="0 0 463 463">
  <g fill="#9C9C9C">
    <path d="M412 87h-7V73c0-13-10-22-22-22h-81l-10-35c-2-9-11-16-21-16h-79c-10 0-19 7-21 16l-10 35H80c-12 0-22 9-22 22v14h-7a8 8 0 0 0 0 15h15l26 328c1 18 17 33 36 33h207c19 0 35-15 36-33l26-328h15a8 8 0 0 0 0-15zM185 20c1-3 4-5 7-5h79c3 0 6 2 7 5l9 31H176l9-31zM80 66h303c4 0 7 3 7 7v14H73V73c0-4 3-7 7-7zm276 362c-1 11-10 20-21 20H128c-11 0-20-9-21-20L81 102h301l-26 326z"/>
    <path d="M232 427c4 0 7-3 7-8V138a8 8 0 0 0-15 0v281c0 5 3 8 8 8zm-73-7a8 8 0 0 0 15-1l-14-282a7 7 0 1 0-15 1l14 282zm137 7h1c4 0 7-3 7-7l14-282a8 8 0 0 0-15-1l-14 282c0 4 3 8 7 8z"/>
  </g>
</svg>
