<svg version="1" xmlns="http://www.w3.org/2000/svg" width="1365.333" height="1365.333" viewBox="0 0 1024.000000 1024.000000"><path d="M101.8 69.1c-11 2.6-24.2 12.7-29.1 22.5-6.2 12.2-5.7-14.9-5.7 329.8v314.1l89.3-89.3 89.2-89.2h450.6l6.2-2.1c15.6-5.2 27.2-18 30.6-33.7 1.6-7.5 1.6-409.9 0-417.4-2.9-13.5-12.4-25.3-25.6-31.6l-7.8-3.7-297-.2c-170 0-298.6.3-300.7.8zM425.5 147c14.4 1.4 25.6 4.5 36.9 10.1 11.7 5.9 17.4 9.9 24.2 17.1 15.1 16.1 23 36.9 22.2 58.3-.5 11.1-2.6 18.1-8 27.4-5.4 9.1-21.6 24.5-39.7 37.7-9 6.5-17.7 13.1-19.2 14.6-5.3 5.4-7.8 18.2-7.9 40V366h-65v-12.8c0-47.8 6.6-63.3 32.7-77.2 14.9-7.9 25.5-15.4 33.1-23.5 8.8-9.2 10.6-13.6 10-24.2-.6-9.5-2.9-14.4-9.3-20.1-6.2-5.5-12.9-7.6-23.5-7.5-19.1.1-31.2 10-34.3 27.9l-1.1 6.4h-29.8c-27.7 0-29.8-.1-29.8-1.8 0-.9.5-5.8 1-10.7 5-44.5 42.4-75.2 93-76.3 2.5-.1 9 .3 14.5.8zM415 397.6c16.2 4.5 27.2 18.5 27.3 34.9 0 8.9-3.1 16.2-10 23.6-15.4 16.4-45.3 17.1-61.1 1.2-17.9-17.9-12.9-46 10.2-57.3 10.1-5 21.2-5.8 33.6-2.4z"/><path d="M812.8 418.2c-.3 172.9-.3 173.3-2.4 179.8-6.7 20.7-18.1 32.4-35.6 36.5-5.5 1.3-40.6 1.5-268 1.5H245v52.7c0 57.2 0 57 5.6 67.4 3.1 5.7 10.9 13.4 17.4 17.2 10.5 6.1-7.1 5.7 263 5.7h246.5l88.5 88.5c48.7 48.7 88.8 88.5 89.2 88.5.5 0 .8-151.1.8-335.8V284.3l-2.1-6.4c-5.5-17-20-29.5-37.1-31.9-3.5-.5-28.2-1-55-1H813l-.2 173.2z"/></svg>