<svg xmlns="http://www.w3.org/2000/svg" width="44" height="40"><g fill="#673AB7"><path d="M8.22 22.38A3.53 3.53 0 0 0 4.7 25.9v4.7a3.53 3.53 0 0 0 3.52 3.52h1.5V22.38h-1.5zm0-4.7h1.5c2.6 0 4.7 2.1 4.7 4.7v11.75c0 2.6-2.1 4.7-4.7 4.7h-1.5A8.22 8.22 0 0 1 0 30.6v-4.7a8.22 8.22 0 0 1 8.22-8.22z"/><path d="M38.77 18.85c0-1.3-1.05-2.35-2.35-2.35h-9.4a2.35 2.35 0 0 1-2.34-2.35V7.69a2.94 2.94 0 0 0-2.94-2.94h-.59A2.35 2.35 0 0 0 18.8 7.1v7.2c0 1.07-.73 2-1.76 2.27a2.35 2.35 0 0 0-1.76 2.28v14.1c0 1.3 1.05 2.35 2.35 2.35h17.34c.57 0 1.1-.25 1.45-.67v-6.38c0-.36.09-.72.25-1.05l2.1-4.2v-4.15zm-9.4-7.05h7.05c3.9 0 7.05 3.16 7.05 7.05v4.7c0 .36-.08.72-.24 1.05l-2.1 4.2v6.5c0 .36-.09.72-.25 1.05a6.6 6.6 0 0 1-5.9 3.65H17.62a7.05 7.05 0 0 1-7.05-7.05v-14.1a7.02 7.02 0 0 1 3.52-6.1V7.1c0-3.9 3.16-7.05 7.05-7.05h.59a7.64 7.64 0 0 1 7.64 7.64v4.11z"/></g></svg>